<?xml version="1.0" encoding="utf-8"?>
<!-- Generator: Adobe Illustrator 25.0.1, SVG Export Plug-In . SVG Version: 6.00 Build 0)  -->
<svg version="1.1" id="katman_1" xmlns="http://www.w3.org/2000/svg" xmlns:xlink="http://www.w3.org/1999/xlink" x="0px" y="0px"
	 viewBox="0 0 414.26 414.26" style="enable-background:new 0 0 414.26 414.26;" xml:space="preserve">
<style type="text/css">
	.st0{fill:#E5A86C;}
	.st1{fill:#DD965B;}
	.st2{fill:#ECB67B;}
	.st3{fill:#7A4313;}
	.st4{fill:#70360B;}
	.st5{fill:#5E2E0B;}
	.st6{fill:#008E87;}
	.st7{fill:#FFFFFF;}
	.st8{fill:#282828;}
	.st9{fill:#CC894C;}
	.st10{fill:none;stroke:#70360B;stroke-width:5;stroke-miterlimit:10;}
</style>
<g>
	<path class="st0" d="M146.44,199.03l-2.28,8.19c0,0-7.64,22.99-12.15,28.42c-4.51,5.43,14.11,23.54,28.47,33.25
		c14.36,9.71,27.97,14.27,27.97,14.27s7.3-11.89,11.34-12.82c4.05-0.93-10.43-56.84-10.43-56.84L146.44,199.03z"/>
	<path class="st1" d="M189.37,213.51l-42.93-14.48l-2.28,8.19c0,0-1.3,3.91-3.14,8.88c5.06,9.1,15.62,9,25.42,5.43
		c0.77,21.17,7.32,45.94,22.81,60.39c1.99-3.06,7.31-10.83,10.55-11.57C203.85,269.42,189.37,213.51,189.37,213.51z"/>
	<path class="st2" d="M257.81,187.64c0,0-1.11,14.74-6.54,21.73c-3.91,6.22,1.74,18.35,4.32,28.94c0.95,5.54-10.32,5.87-10.32,5.87
		s-0.82,6.68-0.87,9.25c-0.05,2.57-0.64,2.81-3.4,3.76c-2.77,0.95-6.85,2.63-7.31,2.95c5.33-0.9,5.8-0.26,6.04,1.28
		c0.25,1.54-2.58,4.1-4.98,5.72c-2.4,1.61,1.95,7.12-1.35,11.81c-3.29,4.69-28.43,7.03-41.07-10.53
		c-12.64-17.56-13.34-27.29-7.23-55.43l-40.94-5.78c0,0-5.97-37.3,20.84-58.44C191.8,127.63,263.99,142.45,257.81,187.64z"/>
	<path class="st1" d="M181.44,236.09c0,0,6.47-1.07,7.41-7.35c-0.62,7.06-3.93,8.12-7.48,9.16L181.44,236.09z"/>
	<path class="st1" d="M242.36,233.57c0,0-4.14,3.48-4.12,6.4c0.03,2.92,6.12,3.9,6.12,3.9s-2.62-1.59-3.35-3.89
		C240.27,237.67,242.36,233.57,242.36,233.57z"/>
	<path class="st3" d="M231.05,217.83l3.77,1.97c1.25,0.63,2.5,1.24,3.77,1.68c1.28,0.44,2.55,0.72,3.53-0.02
		c1-0.71,1.56-2.08,2.19-3.36c-0.18,1.38-0.35,2.95-1.58,4.12c-0.59,0.58-1.47,0.88-2.29,0.88c-0.83-0.02-1.55-0.22-2.27-0.44
		C235.4,221.62,233.03,219.92,231.05,217.83z"/>
	<path class="st3" d="M229.43,212.23c0,0,6.44-3.07,12.34-3.35c5.9-0.28,8.52,0.93,9.33-1.6
		C251.9,204.76,240.43,200.67,229.43,212.23z"/>
	<path class="st4" d="M240.72,184.66c0,0-8.01,13.4-19.87,16.54s-15.15,9.21-16.39,15.89c-1.24,6.68,6.53,11.5,7.2,21.57
		c0.67,10.07,2.8,11.93,10.27,11.07c7.47-0.86,20.21-7.6,23.34-5.54c3.13,2.05,5.12,11.59-2.91,19.41
		c-6.32,5.92-0.74,11.67-2.55,18.69c-1.81,7.02-35.96,4.45-45.26-7.63c-9.3-12.08-9.83-21.69-7.06-30.91
		c2.77-9.22,6.23-23.36,1.76-31.72c-4.46-8.35-14.08-4.92-17.17,0.28c-3.09,5.2-15.71,7.76-21.6,7.19
		c-5.88-0.57-9.07-4.48-9.07-4.48s-5.27-38.11,10.65-51.24S240.72,184.66,240.72,184.66z"/>
	<path class="st5" d="M201.52,266.19c-15.64-12.15,1.27-34.52-10.85-50.33c2.08,8.4-0.8,19.97-3.18,27.9
		c-2.77,9.22-2.24,18.83,7.06,30.91c9.3,12.08,43.45,14.64,45.26,7.63c1.2-4.66-0.85-8.77-0.51-12.73
		C226.53,274.93,212.13,274.63,201.52,266.19z"/>
	<path class="st5" d="M240.72,184.66c0,0-72.74-34.01-88.66-20.87c-4.14,3.42-6.84,8.54-8.58,14.23
		c25.58,12.22,53.47,19.16,82.66,21.01C235.02,194.16,240.72,184.66,240.72,184.66z"/>
	<path class="st6" d="M256.67,195.41c0,0-28.94,6.98-66.68-5.27s-45.78-14.34-45.78-14.34s0.57-48.38,4.35-55.31
		c3.77-6.93,47.24-2.33,75.11,7.23c32.41,11.11,50.13,19.08,51.96,25.69C277.45,160.02,256.67,195.41,256.67,195.41z"/>
	<g>
		<path class="st7" d="M203.42,166.2c-29.9-9.71-50.82-16.92-58.24-19.51c-0.39,7.17-0.64,14.42-0.78,19.9
			c6.66,2.33,22.28,7.69,49.39,16.49c37.74,12.26,66.68,5.27,66.68,5.27s2.31-3.94,5.32-9.42c1.25-2.4,2.51-4.88,3.7-7.33
			C265.18,172.5,238,177.43,203.42,166.2z"/>
	</g>
	<path class="st8" d="M257.87,153.08c12.97,3.38,20.66,5.31,16.62-1.83c-4.65-6.18-21.87-13.6-50.82-23.52
		c-26.81-9.19-68.05-13.8-74.5-7.96c-1.2,2.54,16.68,6.08,39.99,13.89C212.54,141.49,244.9,149.7,257.87,153.08z"/>
	<g>
		<path class="st6" d="M212.79,88.71l0.83-2.39l3.7,1.28c1.09-2.34,3.7-3.61,6.21-3.02l1.28-3.7l2.39,0.83l-1.27,3.67l1.59,0.55
			l1.27-3.67l2.39,0.83l-1.27,3.67l1.59,0.55l1.27-3.67l2.39,0.83l-1.27,3.67l1.59,0.55l1.27-3.67l2.39,0.83l-1.27,3.67l1.59,0.55
			l1.27-3.67l2.39,0.83l-1.27,3.67l1.59,0.55l1.27-3.67l2.39,0.83l-1.28,3.7c2.34,1.09,3.61,3.7,3.02,6.21l3.7,1.28l-0.83,2.39
			l-3.67-1.27l-0.55,1.59l3.67,1.27l-0.83,2.39l-3.67-1.27l-0.55,1.59l3.67,1.27l-0.83,2.39l-3.67-1.27l-0.55,1.59l3.67,1.27
			l-0.83,2.39l-3.67-1.27l-0.55,1.59l3.67,1.27l-0.83,2.39l-3.67-1.27l-0.55,1.59l3.67,1.27l-0.83,2.39l-3.7-1.28
			c-1.09,2.34-3.7,3.61-6.21,3.02l-1.28,3.7l-2.39-0.83l1.27-3.67l-1.59-0.55l-1.27,3.67l-2.39-0.83l1.27-3.67l-1.59-0.55
			l-1.27,3.67l-2.39-0.83l1.27-3.67l-1.59-0.55l-1.27,3.67l-2.39-0.83l1.27-3.67l-1.59-0.55l-1.27,3.67l-2.39-0.83l1.27-3.67
			l-1.59-0.55l-1.27,3.67l-2.39-0.83l1.28-3.7c-2.34-1.09-3.61-3.7-3.02-6.21l-3.7-1.28l0.83-2.39l3.67,1.27l0.55-1.59l-3.67-1.27
			l0.83-2.39l3.67,1.27l0.55-1.59l-3.67-1.27l0.83-2.39l3.67,1.27l0.55-1.59l-3.67-1.27l0.83-2.39l3.67,1.27l0.55-1.59l-3.67-1.27
			l0.83-2.39l3.67,1.27l0.55-1.59L212.79,88.71z M212.16,110.17c-0.53,1.54,0.29,3.22,1.82,3.75l21.23,7.34
			c1.54,0.53,3.22-0.29,3.75-1.82l7.34-21.23c0.53-1.54-0.29-3.22-1.82-3.75l-21.23-7.34c-1.54-0.53-3.22,0.29-3.75,1.82
			L212.16,110.17z"/>
		<path class="st6" d="M224.57,89.74l17.23,5.96c1.58,0.54,2.42,2.27,1.87,3.85l-5.96,17.23c-0.54,1.58-2.27,2.42-3.85,1.87
			l-17.23-5.96c-1.58-0.54-2.42-2.27-1.87-3.85l5.96-17.23C221.27,90.03,223,89.19,224.57,89.74z M215.96,109.26
			c-0.32,0.92,0.17,1.92,1.09,2.24l0.3,0.11l1.68-4.86c-0.3-0.38-0.4-0.91-0.23-1.4c0.27-0.78,1.12-1.19,1.9-0.92
			c0.78,0.27,1.19,1.12,0.92,1.9c-0.16,0.47-0.55,0.81-0.99,0.94l-1.69,4.89l2.79,0.96l2.89-8.37l-1.08-3.8
			c-0.02-0.01-0.04-0.01-0.06-0.01c-0.78-0.27-1.19-1.12-0.92-1.9c0.27-0.78,1.12-1.19,1.9-0.92c0.78,0.27,1.19,1.12,0.92,1.9
			c-0.06,0.16-0.14,0.3-0.24,0.43l1.24,4.36l-3.07,8.87l2.29,0.79l0.82-2.37c-0.28-0.38-0.38-0.89-0.21-1.38
			c0.27-0.78,1.12-1.19,1.9-0.92c0.78,0.27,1.19,1.12,0.92,1.9c-0.17,0.48-0.56,0.83-1.02,0.95l-0.82,2.37l5.47,1.89l2.15-6.23
			c-0.28-0.38-0.38-0.89-0.21-1.38c0.27-0.78,1.12-1.19,1.9-0.92c0.78,0.27,1.19,1.12,0.92,1.9c-0.17,0.48-0.56,0.83-1.02,0.95
			l-2.15,6.23l0.01,0c0.92,0.32,1.92-0.17,2.24-1.09l5.96-17.23c0.32-0.92-0.17-1.92-1.09-2.24l-1.41-0.49l-2.37,6.87l-3.81,3.46
			c0.03,0.22,0.01,0.44-0.07,0.66c-0.27,0.78-1.12,1.19-1.9,0.92c-0.78-0.27-1.19-1.12-0.92-1.9c0.26-0.74,1.03-1.14,1.78-0.95
			l3.47-3.15l2.23-6.46l-2.89-1l-1.11,3.21c0.28,0.38,0.38,0.89,0.21,1.38c-0.27,0.78-1.12,1.19-1.9,0.92
			c-0.78-0.27-1.19-1.12-0.92-1.9c0.17-0.48,0.56-0.83,1.02-0.95l1.11-3.21l-2.59-0.89l-1.71,4.96l0.65,3.33
			c0.68,0.32,1.02,1.1,0.77,1.83c-0.27,0.78-1.12,1.19-1.9,0.92c-0.78-0.27-1.19-1.12-0.92-1.9c0.08-0.24,0.22-0.43,0.39-0.59
			l-0.72-3.72l1.86-5.39l-2.29-0.79l-0.31,0.89c0.28,0.38,0.38,0.89,0.21,1.38c-0.27,0.78-1.12,1.19-1.9,0.92
			c-0.78-0.27-1.19-1.12-0.92-1.9c0.17-0.48,0.56-0.83,1.02-0.95l0.31-0.89l-1.7-0.59c-0.92-0.32-1.92,0.17-2.24,1.09L215.96,109.26
			z"/>
	</g>
	<g>
		<path class="st6" d="M194.13,103.68c-0.47,1.6,0.08,3.26,1.27,4.28l-9.02,30.63l3.23,0.95l9.02-30.63
			c1.56-0.21,2.92-1.31,3.39-2.91c0.64-2.18-0.6-4.47-2.79-5.11C197.06,100.25,194.77,101.5,194.13,103.68z"/>
		<path class="st6" d="M250.35,82.83c-0.64,2.18,0.61,4.47,2.79,5.11c0.55,0.16,1.1,0.2,1.64,0.14l12.7,20.83l-13.1,44.49l3.23,0.95
			l13.52-45.92l-13.47-22.09c0.25-0.36,0.46-0.74,0.59-1.18c0.64-2.18-0.61-4.47-2.79-5.11C253.28,79.4,250.99,80.65,250.35,82.83z"
			/>
		<path class="st6" d="M168.73,38.88c-0.64,2.18,0.61,4.47,2.79,5.11c0.4,0.12,0.8,0.15,1.19,0.15l11.13,24.82l-19.14,65l3.23,0.95
			l19.49-66.19l-11.65-25.97c0.38-0.43,0.68-0.95,0.85-1.54c0.64-2.18-0.61-4.47-2.79-5.11C171.66,35.46,169.37,36.7,168.73,38.88z"
			/>
		<path class="st6" d="M176.17,74.15c0.64-2.18-0.61-4.47-2.79-5.11c-2.18-0.64-4.47,0.6-5.11,2.79c-0.47,1.6,0.08,3.26,1.27,4.28
			l-17.2,58.4l3.23,0.95l17.2-58.4C174.33,76.85,175.7,75.76,176.17,74.15z"/>
		<path class="st6" d="M303.67,113.31c-0.7,2.16-3.03,3.35-5.19,2.64c-0.54-0.18-1.03-0.46-1.43-0.81l-22.25,10.01l-14.33,44.11
			l-3.2-1.04l14.79-45.53l23.6-10.62c0-0.43,0.04-0.87,0.18-1.31c0.7-2.16,3.03-3.35,5.19-2.64
			C303.19,108.82,304.37,111.15,303.67,113.31z"/>
		<path class="st6" d="M220.82,75.66c-0.7,2.16-3.03,3.35-5.19,2.64c-0.54-0.18-1.03-0.46-1.43-0.81L191.96,87.5l-14.33,44.11
			l-3.2-1.04l14.79-45.53l23.6-10.62c0-0.43,0.04-0.87,0.18-1.31c0.7-2.16,3.03-3.35,5.19-2.64
			C220.34,71.17,221.52,73.5,220.82,75.66z"/>
		<path class="st6" d="M251.09,114.67c-0.47,1.6,0.08,3.26,1.27,4.28l-9.02,30.63l3.23,0.95l9.02-30.63
			c1.56-0.21,2.92-1.31,3.39-2.91c0.64-2.18-0.6-4.47-2.79-5.11C254.02,111.25,251.73,112.49,251.09,114.67z"/>
	</g>
	<path class="st2" d="M191.12,211.83c0,0,2.08-10.49-4.56-13.44c-6.64-2.96-15.47,5.95-14.89,20.59
		c0.57,14.64,8.89,18.38,12.24,16.76c3.36-1.62,4.44-3.89,5.12-7.88C189.71,223.87,191.12,211.83,191.12,211.83z"/>
	<path class="st9" d="M173.67,218.23c0,0-0.54-7.96,4.02-14.7c2.94-4.36,7.7-2.72,9.08,2.84c1.38,5.57,1.16,15.09-1.28,18.34
		c-2.44,3.25-5.15,1.18-5.5-0.79c-0.35-1.97,1.78-5.67,3.45-5.94c0.07-3.96-3.56-5.94-4.61-5.38c1.41-1.55,5.56-0.2,5.91,2.16
		c0.03-5.79,0.49-9-1.46-11.01c-1.95-2.01-5.72,0.92-6.94,4.3C175.12,211.42,173.67,218.23,173.67,218.23z"/>
</g>
<g>
	<g>
		<path class="st5" d="M164.4,371.18c0,3-1.26,5.34-3.77,7.03c-1,0.67-2.16,1.01-3.49,1.01h-6.9c-0.57,0-0.85-0.21-0.85-0.64
			c0-0.43,0.28-0.64,0.85-0.64h1.08v-15.29h-1.08c-0.57,0-0.85-0.21-0.85-0.64c0-0.43,0.28-0.64,0.85-0.64h6.9
			c2.12,0,3.78,0.73,4.99,2.2c1.52,1.83,2.27,3.78,2.27,5.84V371.18z M163.11,371.46v-2.32c0-0.79-0.13-1.5-0.38-2.12
			c-0.37-0.9-0.88-1.76-1.56-2.58c-0.98-1.19-2.28-1.78-3.92-1.78h-4.65v15.29h4.65c1.07,0,2.08-0.36,3.05-1.07
			c0.92-0.66,1.62-1.5,2.11-2.52C162.88,373.38,163.11,372.41,163.11,371.46z"/>
		<path class="st5" d="M180.12,378.58c0,0.43-0.29,0.64-0.87,0.64H167.9c-0.57,0-0.85-0.21-0.85-0.64c0-0.43,0.28-0.64,0.85-0.64
			h5.03v-10.63h-3.74c-0.58,0-0.87-0.21-0.87-0.64c0-0.44,0.29-0.66,0.87-0.66h5.02v11.93h5.03
			C179.83,377.94,180.12,378.16,180.12,378.58z M174.17,362.75h-1.89v-3.31h1.89V362.75z"/>
		<path class="st5" d="M198.89,366.67c0,0.43-0.28,0.64-0.85,0.64h-1.72v12.8c0,0.85-0.18,1.62-0.55,2.29
			c-0.57,1.05-1.49,1.85-2.78,2.41c-0.47,0.2-1.09,0.31-1.88,0.31h-3.63c-0.57,0-0.85-0.21-0.85-0.64c0-0.44,0.28-0.66,0.85-0.66
			l3.68,0.02c1.56,0.01,2.74-0.75,3.54-2.27c0.22-0.42,0.34-0.96,0.34-1.63v-3.84c-1.37,1.88-3.14,2.82-5.31,2.82
			c-1.81,0-3.35-0.67-4.61-2c-1.24-1.3-1.86-2.86-1.86-4.68s0.63-3.39,1.88-4.7c1.25-1.31,2.78-1.97,4.59-1.97
			c2.17,0,3.94,0.94,5.31,2.81v-2.35h3.01C198.61,366.01,198.89,366.23,198.89,366.67z M195.03,372.22c0-1.48-0.51-2.75-1.52-3.8
			c-1.01-1.05-2.26-1.57-3.73-1.57c-1.47,0-2.72,0.53-3.72,1.58c-1.01,1.05-1.51,2.32-1.51,3.79c0,1.48,0.5,2.75,1.51,3.81
			c1.01,1.05,2.25,1.58,3.72,1.58c1.47,0,2.72-0.53,3.73-1.58C194.53,374.98,195.03,373.71,195.03,372.22z"/>
		<path class="st5" d="M214.49,378.58c0,0.43-0.29,0.64-0.87,0.64h-11.35c-0.57,0-0.85-0.21-0.85-0.64c0-0.43,0.28-0.64,0.85-0.64
			h5.03v-10.63h-3.74c-0.58,0-0.87-0.21-0.87-0.64c0-0.44,0.29-0.66,0.87-0.66h5.02v11.93h5.03
			C214.2,377.94,214.49,378.16,214.49,378.58z M208.54,362.75h-1.89v-3.31h1.89V362.75z"/>
		<path class="st5" d="M232.24,377.62c0,0.48-0.85,0.98-2.56,1.51c-1.26,0.4-2.47,0.59-3.62,0.59c-1.36,0-2.49-0.3-3.37-0.9
			c-1.02-0.69-1.53-1.69-1.53-2.99v-8.53h-2.36c-0.57,0-0.85-0.22-0.85-0.66c0-0.43,0.28-0.64,0.85-0.64h2.36v-3.78
			c0-0.57,0.21-0.85,0.64-0.85c0.44,0,0.66,0.29,0.66,0.85v3.78h6.96c0.57,0,0.85,0.22,0.85,0.66c0,0.43-0.28,0.64-0.85,0.64h-6.96
			v8.53c0,0.9,0.38,1.57,1.14,2.03c0.62,0.39,1.41,0.58,2.36,0.58c0.78,0,1.67-0.12,2.65-0.35c1.06-0.24,1.89-0.55,2.5-0.92
			c0.22-0.13,0.39-0.2,0.5-0.2C232.04,376.98,232.24,377.2,232.24,377.62z"/>
		<path class="st5" d="M249.84,378.58c0,0.43-0.29,0.64-0.87,0.64h-3.01v-1.85c-1.86,1.57-3.85,2.35-5.96,2.35
			c-1.34,0-2.47-0.33-3.37-0.98c-1.02-0.74-1.53-1.76-1.53-3.05c0-1.58,0.76-2.79,2.29-3.63c1.23-0.67,2.7-1.01,4.41-1.01
			c1.22,0,2.61,0.16,4.16,0.47v-2.07c0-0.91-0.45-1.59-1.34-2.06c-0.71-0.37-1.57-0.55-2.56-0.55c-0.99,0-2.39,0.29-4.2,0.87
			c-0.32,0.1-0.52,0.15-0.63,0.15c-0.4,0-0.59-0.21-0.59-0.64c0-0.17,0.05-0.31,0.15-0.41c0.14-0.15,0.72-0.36,1.72-0.63
			c1.61-0.43,2.81-0.64,3.6-0.64c1.31,0,2.46,0.32,3.43,0.95c1.14,0.72,1.71,1.71,1.71,2.96v8.48h1.71
			C249.55,377.94,249.84,378.16,249.84,378.58z M245.97,375.67v-2.82c-1.17-0.34-2.51-0.5-4.03-0.5c-1.85,0-3.31,0.4-4.36,1.2
			c-0.79,0.6-1.19,1.32-1.19,2.15c0,0.93,0.38,1.63,1.13,2.12c0.64,0.42,1.45,0.63,2.43,0.63
			C242.02,378.45,244.03,377.52,245.97,375.67z"/>
		<path class="st5" d="M266.02,378.58c0,0.43-0.29,0.64-0.87,0.64H253.8c-0.57,0-0.85-0.21-0.85-0.64c0-0.43,0.28-0.64,0.85-0.64
			h5.03v-16.57h-3.69c-0.58,0-0.87-0.22-0.87-0.66c0-0.43,0.29-0.64,0.87-0.64h4.97v17.86h5.03
			C265.73,377.94,266.02,378.16,266.02,378.58z"/>
	</g>
	<g>
		<path class="st8" d="M111.59,333.16l8.38-0.81c0.97,5.43,4.07,8.15,9.31,8.15c2.16,0,4-0.42,5.53-1.26
			c1.9-1.06,2.85-2.59,2.85-4.59c0-2.03-1.33-3.5-3.98-4.43c-0.97-0.34-3.28-0.97-6.92-1.88c-4.61-1.14-7.85-2.54-9.7-4.2
			c-2.63-2.35-3.94-5.22-3.94-8.6c0-2.33,0.67-4.43,2-6.31c1.27-1.81,3-3.18,5.17-4.11c2.33-0.99,5.13-1.49,8.41-1.49
			c4.68,0,8.43,0.96,11.25,2.88c3.23,2.22,4.94,5.57,5.11,10.06l-8.63,0.36c-0.37-2.24-1.2-3.85-2.49-4.82
			c-1.21-0.88-2.99-1.33-5.34-1.33c-2.5,0-4.46,0.51-5.89,1.52c-0.91,0.67-1.36,1.55-1.36,2.65c0,1.01,0.43,1.88,1.29,2.59
			c1.06,0.91,3.72,1.91,7.99,3.01c4.76,1.23,7.84,2.2,9.22,2.91c4.27,2.26,6.4,5.98,6.4,11.16c0,2.57-0.7,4.89-2.1,6.98
			c-1.4,2.09-3.3,3.63-5.69,4.62c-2.48,1.03-5.57,1.55-9.28,1.55C118.59,347.78,112.73,342.91,111.59,333.16z"/>
		<path class="st8" d="M161.58,304.38v15.68c2.65-3.08,5.81-4.62,9.47-4.62c3.92,0,6.76,1.24,8.5,3.72c1.34,1.88,2,5.12,2,9.73
			v18.14h-8.18v-16.33c0-2.5-0.03-3.99-0.1-4.46c-0.26-1.81-0.93-3.07-2-3.78c-0.8-0.52-1.79-0.78-2.97-0.78
			c-3,0-4.99,1.33-5.98,3.98c-0.5,1.34-0.74,3.3-0.74,5.89v15.49h-8.18v-42.65H161.58z"/>
		<path class="st6" d="M195.95,325.56l-7.41-1.36c0.91-3.28,2.53-5.61,4.88-6.98c2.03-1.19,4.86-1.78,8.5-1.78
			c6.27,0,10.24,1.52,11.9,4.56c0.78,1.4,1.14,3.85,1.1,7.34l-0.1,9.54c-0.02,4.14,0.6,7.52,1.88,10.15h-8.08
			c-0.24-0.58-0.51-1.39-0.81-2.43c-0.15-0.52-0.25-0.83-0.29-0.94c-2.78,2.72-5.97,4.07-9.57,4.07c-2.93,0-5.34-0.78-7.21-2.33
			c-2.03-1.68-3.04-3.96-3.04-6.82c0-3.66,1.58-6.27,4.75-7.83c1.53-0.73,3.7-1.37,6.5-1.91c3.86-0.71,6.51-1.38,7.96-2v-0.81
			c0-1.75-0.51-2.94-1.52-3.59c-0.8-0.52-2.15-0.78-4.04-0.78C198.66,321.68,196.86,322.98,195.95,325.56z M206.92,332.19
			c-0.37,0.13-2.03,0.53-4.98,1.2c-2.33,0.54-3.82,1.03-4.46,1.49c-1.06,0.73-1.58,1.69-1.58,2.88c0,1.23,0.44,2.24,1.33,3.02
			c0.88,0.79,1.95,1.18,3.2,1.18c1.49,0,2.89-0.49,4.2-1.46c0.99-0.71,1.65-1.61,1.97-2.68c0.22-0.73,0.32-2.07,0.32-4.01V332.19z"
			/>
		<path class="st6" d="M222.99,311.95v-7.57h8.18v7.57H222.99z M222.99,347.04v-30.91h8.18v30.91H222.99z"/>
		<path class="st8" d="M239.25,347.04v-42.65h8.18v22.64l9.57-10.9h10.09l-10.57,11.29l11.32,19.63h-8.83l-7.76-13.87l-3.82,3.98
			v9.89H239.25z"/>
		<path class="st8" d="M280.84,304.38v15.68c2.65-3.08,5.81-4.62,9.47-4.62c3.92,0,6.76,1.24,8.5,3.72c1.34,1.88,2,5.12,2,9.73
			v18.14h-8.18v-16.33c0-2.5-0.03-3.99-0.1-4.46c-0.26-1.81-0.93-3.07-2.01-3.78c-0.8-0.52-1.79-0.78-2.97-0.78
			c-3,0-4.99,1.33-5.98,3.98c-0.5,1.34-0.74,3.3-0.74,5.89v15.49h-8.18v-42.65H280.84z"/>
	</g>
</g>
<path class="st8" d="M170.08,199.17"/>
<circle class="st10" cx="207.13" cy="207.13" r="197.76"/>
</svg>
